<svg xmlns="http://www.w3.org/2000/svg" aria-label="A Vila PetVila" viewBox="0 0 1440 220" preserveAspectRatio="xMidYMax slice"><path fill="#9A4123" d="M20 220V100L65.0 62.2L110 100V220Z"/><rect fill="#FFE1BC" x="58.0" y="122" width="14" height="18" rx="3"/><path fill="#9A4123" d="M150 220V70A35.0 35.0 0 0 1 220 70V220Z"/><rect fill="#FFE1BC" x="178.0" y="92" width="14" height="18" rx="3"/><path fill="#9A4123" d="M300 220V115H410V220Z"/><rect fill="#FFE1BC" x="348.0" y="137" width="14" height="18" rx="3"/><path fill="#9A4123" d="M470 220V80L510.0 46.4L550 80V220Z"/><rect fill="#FFE1BC" x="503.0" y="102" width="14" height="18" rx="3"/><path fill="#9A4123" d="M640 220V55A45.0 45.0 0 0 1 730 55V220Z"/><rect fill="#FFE1BC" x="678.0" y="77" width="14" height="18" rx="3"/><path fill="#9A4123" d="M860 220V100L910.0 58.0L960 100V220Z"/><rect fill="#FFE1BC" x="903.0" y="122" width="14" height="18" rx="3"/><path fill="#9A4123" d="M1010 220V70A35.0 35.0 0 0 1 1080 70V220Z"/><rect fill="#FFE1BC" x="1038.0" y="92" width="14" height="18" rx="3"/><path fill="#9A4123" d="M1150 220V110H1260V220Z"/><rect fill="#FFE1BC" x="1198.0" y="132" width="14" height="18" rx="3"/><path fill="#9A4123" d="M1320 220V80L1365.0 42.2L1410 80V220Z"/><rect fill="#FFE1BC" x="1358.0" y="102" width="14" height="18" rx="3"/><rect fill="#9A4123" x="127" y="162" width="6" height="58"/><circle fill="#9A4123" cx="130" cy="147.6" r="24"/><rect fill="#9A4123" x="442" y="150" width="6" height="70"/><circle fill="#9A4123" cx="445" cy="133.2" r="28"/><rect fill="#9A4123" x="842" y="160" width="6" height="60"/><circle fill="#9A4123" cx="845" cy="144.4" r="26"/><rect fill="#9A4123" x="1297" y="156" width="6" height="64"/><circle fill="#9A4123" cx="1300" cy="140.4" r="26"/><path fill="#E25D28" d="M-10 220V142L50.0 91.6L110 142V220Z"/><rect fill="#FFE1BC" x="8" y="160" width="22" height="26" rx="3"/><rect fill="#FFE1BC" x="70" y="160" width="22" height="26" rx="3"/><path fill="#562A22" d="M33.2 220V197.8A16.8 16.8 0 0 1 66.80000000000001 197.8V220Z"/><path fill="#E25D28" d="M125 220V116A48.0 48.0 0 0 1 221 116V220Z"/><circle fill="#FFE1BC" cx="173.0" cy="140.0" r="18.0"/><path fill="#562A22" d="M159.56 220V181.44A13.440000000000001 13.440000000000001 0 0 1 186.44 181.44V220Z"/><path fill="#E25D28" d="M236 220V150H366V220Z"/><rect fill="#FFE1BC" x="250" y="166" width="26" height="22" rx="3"/><rect fill="#FFE1BC" x="326" y="166" width="26" height="22" rx="3"/><path fill="#562A22" d="M284.0 220V202.0A17.0 17.0 0 0 1 318.0 202.0V220Z"/><path fill="#E25D28" d="M380 220V124L426.0 85.36L472 124V220Z"/><path fill="#FFE1BC" d="M412 168V152.0A14.0 14.0 0 0 1 440 152.0V168Z"/><path fill="#562A22" d="M413.12 220V184.88A12.88 12.88 0 0 1 438.88 184.88V220Z"/><path fill="#E25D28" d="M488 220V158A55.0 55.0 0 0 1 598 158V220Z"/><path fill="#FFE1BC" d="M504 192V179.0A11.0 11.0 0 0 1 526 179.0V192Z"/><path fill="#FFE1BC" d="M560 192V179.0A11.0 11.0 0 0 1 582 179.0V192Z"/><path fill="#562A22" d="M527.6 220V204.4A15.400000000000002 15.400000000000002 0 0 1 558.4 204.4V220Z"/><path fill="#E25D28" d="M612 220V102A75.0 75.0 0 0 1 762 102V220Z"/><path fill="#FFE1BC" d="M632 168V146.0A14.0 14.0 0 0 1 660 146.0V168Z"/><path fill="#FFE1BC" d="M714 168V146.0A14.0 14.0 0 0 1 742 146.0V168Z"/><circle fill="#FFE1BC" cx="687.0" cy="92.0" r="20.0"/><path fill="#562A22" d="M670.0 220V185.0A17.0 17.0 0 0 1 704.0 185.0V220Z"/><path fill="#E25D28" d="M778 220V136L830.0 92.32L882 136V220Z"/><rect fill="#FFE1BC" x="794" y="152" width="22" height="26" rx="3"/><rect fill="#FFE1BC" x="844" y="152" width="22" height="26" rx="3"/><path fill="#562A22" d="M815.44 220V192.56A14.560000000000002 14.560000000000002 0 0 1 844.5600000000001 192.56V220Z"/><path fill="#E25D28" d="M896 220V154H1020V220Z"/><rect fill="#FFE1BC" x="914" y="168" width="24" height="22" rx="3"/><rect fill="#FFE1BC" x="978" y="168" width="24" height="22" rx="3"/><path fill="#562A22" d="M941.0 220V204.0A17.0 17.0 0 0 1 975.0 204.0V220Z"/><path fill="#E25D28" d="M1034 220V120A45.0 45.0 0 0 1 1124 120V220Z"/><circle fill="#FFE1BC" cx="1079.0" cy="150.0" r="18.0"/><path fill="#562A22" d="M1066.4 220V182.6A12.600000000000001 12.600000000000001 0 0 1 1091.6000000000001 182.6V220Z"/><path fill="#E25D28" d="M1138 220V140L1197.0 90.44L1256 140V220Z"/><rect fill="#FFE1BC" x="1154" y="156" width="22" height="26" rx="3"/><rect fill="#FFE1BC" x="1218" y="156" width="22" height="26" rx="3"/><path fill="#562A22" d="M1180.48 220V196.52A16.520000000000003 16.520000000000003 0 0 1 1213.52 196.52V220Z"/><path fill="#E25D28" d="M1270 220V156A50.0 50.0 0 0 1 1370 156V220Z"/><path fill="#FFE1BC" d="M1284 190V177.0A11.0 11.0 0 0 1 1306 177.0V190Z"/><path fill="#FFE1BC" d="M1334 190V177.0A11.0 11.0 0 0 1 1356 177.0V190Z"/><path fill="#562A22" d="M1306.0 220V202.0A14.000000000000002 14.000000000000002 0 0 1 1334.0 202.0V220Z"/><path fill="#E25D28" d="M1384 220V124L1424.0 90.4L1464 124V220Z"/><path fill="#FFE1BC" d="M1412 168V152.0A12.0 12.0 0 0 1 1436 152.0V168Z"/><path fill="#562A22" d="M1412.8 220V183.2A11.200000000000001 11.200000000000001 0 0 1 1435.2 183.2V220Z"/><rect fill="#E25D28" x="0" y="214" width="1440" height="6"/></svg>
